<svg width="25" height="46" viewBox="0 0 25 46" fill="none" xmlns="http://www.w3.org/2000/svg">
<path d="M24.0285 34.0937C23.6691 33.7344 23.1817 33.5325 22.6734 33.5325C22.1652 33.5325 21.6778 33.7344 21.3184 34.0937L14.3532 41.0531V1.91667C14.3532 1.40834 14.1513 0.920823 13.7918 0.561379C13.4324 0.201934 12.9449 0 12.4365 0C11.9282 0 11.4407 0.201934 11.0812 0.561379C10.7218 0.920823 10.5199 1.40834 10.5199 1.91667V41.032L3.58344 34.0937C3.4086 33.9034 3.19709 33.7505 2.96164 33.6441C2.72619 33.5377 2.47165 33.48 2.21333 33.4744C1.955 33.4689 1.69823 33.5157 1.45843 33.6119C1.21864 33.7081 1.00078 33.8518 0.817946 34.0344C0.635113 34.217 0.491082 34.4347 0.394511 34.6743C0.29794 34.914 0.250823 35.1707 0.255991 35.429C0.26116 35.6873 0.318508 35.942 0.424587 36.1776C0.530667 36.4132 0.683288 36.6249 0.873277 36.8L8.38469 44.3114C8.91864 44.8455 9.55256 45.2691 10.2502 45.5581C10.9479 45.8471 11.6957 45.9959 12.4509 45.9959C13.2061 45.9959 13.9539 45.8471 14.6516 45.5581C15.3492 45.2691 15.9832 44.8455 16.5171 44.3114L24.0285 36.8C24.3867 36.4407 24.5878 35.9541 24.5878 35.4468C24.5878 34.9395 24.3867 34.4529 24.0285 34.0937Z" fill="#C0A9F0"/>
</svg>
